<?xml version="1.0" encoding="UTF-8"?>
<svg width="1200" height="350" viewBox="0 0 1200 350" xmlns="http://www.w3.org/2000/svg">
  <!-- 
    ACC LMS - Main Banner Fixed
    Theme: Dark
    Gradients: NONE (solid colors only)
    Fonts: Sans-serif (Inter, Arial, system-ui)
  -->
  
  <!-- Dark Background -->
  <rect width="1200" height="350" fill="#1a1a1a"/>
  
  <!-- Accent Bars -->
  <rect x="0" y="0" width="1200" height="4" fill="#23a500"/>
  <rect x="0" y="346" width="1200" height="4" fill="#ff7e05"/>
  
  <!-- Decorative Elements -->
  <circle cx="1080" cy="70" r="40" fill="#23a500" opacity="0.12"/>
  <circle cx="1030" cy="280" r="25" fill="#ff7e05" opacity="0.12"/>
  
  <!-- Main Icon Area -->
  <g transform="translate(80, 100)">
    <!-- Graduation Cap -->
    <g fill="#23a500">
      <path d="M70 45L35 30L70 15L105 30L70 45Z"/>
      <path d="M35 30V55C35 63 50 72 70 72C90 72 105 63 105 55V30" opacity="0.8"/>
      <circle cx="110" cy="35" r="5" fill="#ff7e05"/>
      <line x1="110" y1="40" x2="110" y2="55" stroke="#ff7e05" stroke-width="2"/>
    </g>
    
    <!-- Code Brackets -->
    <g transform="translate(0, 80)" stroke="#ffffff" stroke-width="3.5" fill="none" stroke-linecap="round">
      <path d="M45 0L28 20L45 40"/>
      <path d="M95 0L112 20L95 40"/>
    </g>
  </g>
  
  <!-- Main Content -->
  <g transform="translate(260, 80)">
    <!-- Title -->
    <text x="0" y="50" font-family="Inter, Arial, sans-serif" font-size="56" font-weight="bold" fill="#ffffff">
      ACC LMS
    </text>
    
    <!-- Subtitle -->
    <text x="0" y="90" font-family="Inter, Arial, sans-serif" font-size="24" fill="#ff7e05">
      Aprender Con Criterio
    </text>
    
    <!-- Description -->
    <text x="0" y="130" font-family="Inter, Arial, sans-serif" font-size="16" fill="#a0a0a0">
      Learning Management System Open Source con IA y Business Intelligence
    </text>
    
    <!-- Tech Stack Pills -->
    <g transform="translate(0, 165)">
      <rect x="0" y="0" width="85" height="28" fill="#23a500" rx="14"/>
      <text x="42" y="18" font-family="Inter, Arial, sans-serif" font-size="12" fill="#ffffff" text-anchor="middle">React 19</text>
      
      <rect x="95" y="0" width="60" height="28" fill="#ff7e05" rx="14"/>
      <text x="125" y="18" font-family="Inter, Arial, sans-serif" font-size="12" fill="#ffffff" text-anchor="middle">Rust</text>
      
      <rect x="165" y="0" width="95" height="28" fill="#585858" rx="14"/>
      <text x="212" y="18" font-family="Inter, Arial, sans-serif" font-size="12" fill="#ffffff" text-anchor="middle">PostgreSQL</text>
      
      <rect x="270" y="0" width="60" height="28" fill="#585858" rx="14"/>
      <text x="300" y="18" font-family="Inter, Arial, sans-serif" font-size="12" fill="#ffffff" text-anchor="middle">Redis</text>
      
      <rect x="340" y="0" width="70" height="28" fill="#585858" rx="14"/>
      <text x="375" y="18" font-family="Inter, Arial, sans-serif" font-size="12" fill="#ffffff" text-anchor="middle">Traefik</text>
    </g>
  </g>
  
  <!-- Right Side Features -->
  <g transform="translate(920, 110)">
    <!-- AI Badge -->
    <g>
      <circle cx="45" cy="25" r="25" fill="#23a500" opacity="0.2"/>
      <path d="M37 25L45 17L53 25L45 33Z" fill="#23a500"/>
      <text x="45" y="65" font-family="Inter, Arial, sans-serif" font-size="13" fill="#a0a0a0" text-anchor="middle">IA</text>
    </g>
    
    <!-- BI Badge -->
    <g transform="translate(80, 0)">
      <rect x="28" y="8" width="35" height="35" fill="#ff7e05" opacity="0.2" rx="4"/>
      <rect x="34" y="22" width="4" height="16" fill="#ff7e05"/>
      <rect x="41" y="17" width="4" height="21" fill="#ff7e05"/>
      <rect x="48" y="12" width="4" height="26" fill="#ff7e05"/>
      <text x="45" y="65" font-family="Inter, Arial, sans-serif" font-size="13" fill="#a0a0a0" text-anchor="middle">BI</text>
    </g>
  </g>
  
</svg>